<svg xmlns="http://www.w3.org/2000/svg" xmlns:xlink="http://www.w3.org/1999/xlink" id="Layer_1" width="612" height="792" x="0" y="0" enable-background="new 0 0 612 792" version="1.1" viewBox="0 0 612 792" xml:space="preserve"><path fill="none" fill-rule="evenodd" stroke="#000" stroke-miterlimit="10" d="M372.44,353.283	c-9.39-6.644-17.431-15.979-18.398-19.766c-1.132,3.865-8.351,12.944-18.495,19.581c-10.46,6.843-26.172,13.242-26.053,30.36	c0.209,30.087,30.726,36.965,43.203,13.25c-0.344,7.901-2.403,22.474-9.605,24.237c-0.641,0.156-1.309,1.038-0.66,1.448	c5.025,3.168,20.428,1.953,22.758,1.447c2.838-0.606,1.301-2.024,1.115-2.126c-5.509-2.991-10.315-13.224-10.748-24.445	c12.285,22.061,42.729,16.24,42.937-13.626C398.612,366.525,382.707,360.547,372.44,353.283z" clip-rule="evenodd"/></svg>