<svg xmlns="http://www.w3.org/2000/svg" xmlns:svg="http://www.w3.org/2000/svg" id="svg36037" width="744.094" height="1052.362" version="1.1"><metadata id="metadata36042"/><g id="layer1"><path id="path2308" d="m 269.13064,525.87671 c 13.24534,2.388 27.24134,1.92533 40.86,2.35733 24.58934,0.79067 49.18667,-0.152 73.884,-0.18533 3.74134,0 7.47067,-0.43867 11.26534,-0.59067 10.16133,-0.38933 19.77466,-0.43066 30.04399,-1.10266 8.172,-0.52134 16.056,0.39733 24.16134,0.184 10.152,-0.28534 20.18933,-0.75467 30.28533,-0.292 0.74,-0.0307 1.364,0.32266 1.41733,0.764 0.008,0.44133 -0.54133,0.81333 -1.284,0.844 -10.18533,0.64666 -20.40666,0.724 -30.57333,0.64666 -14.07867,-0.10933 -27.81067,-0.208 -42.03333,0.404 -1.61467,0.084 -3.2,-0.24533 -4.76267,-0.236 -11.052,0.104 -21.912,0.524 -32.98666,0.34534 -19.84534,-0.296 -39.71867,0.26133 -59.504,-0.26534 -13.668,-0.356 -27.63734,-0.17733 -40.87734,-2.668 l -0.0747,-0.132 0.17866,-0.0733" style="fill:#1a171b;fill-opacity:1;fill-rule:nonzero;stroke:none"/><path id="path2310" d="m 269.13064,528.32338 c 13.24534,2.388 27.24134,1.92533 40.86,2.35866 24.58934,0.78934 49.18667,-0.152 73.884,-0.188 3.74134,0.003 7.47067,-0.43733 11.26534,-0.58933 10.16133,-0.38933 19.77466,-0.43067 30.04399,-1.10133 8.172,-0.52267 16.056,0.396 24.16134,0.18266 10.152,-0.284 20.18933,-0.75466 30.28533,-0.292 0.74,-0.0307 1.364,0.32267 1.41733,0.76534 0.008,0.44 -0.54133,0.812 -1.284,0.84266 -10.18533,0.648 -20.40666,0.72534 -30.57333,0.64667 -14.07867,-0.10933 -27.81067,-0.208 -42.03333,0.404 -1.61467,0.0853 -3.2,-0.244 -4.76267,-0.236 -11.052,0.10533 -21.912,0.52533 -32.98666,0.34533 -19.84534,-0.296 -39.71867,0.26134 -59.504,-0.26533 -13.668,-0.356 -27.63734,-0.17733 -40.87734,-2.66933 l -0.0747,-0.13067 0.17866,-0.0733" style="fill:#1a171b;fill-opacity:1;fill-rule:nonzero;stroke:none"/><path id="path2312" d="m 269.13064,530.77004 c 13.24534,2.38934 27.24134,1.92667 40.86,2.35867 24.58934,0.79067 49.18667,-0.152 73.884,-0.18667 3.74134,10e-4 7.47067,-0.43733 11.26534,-0.59066 10.16133,-0.38934 19.77466,-0.43067 30.04399,-1.10134 8.172,-0.52133 16.056,0.39734 24.16134,0.184 10.152,-0.28533 20.18933,-0.756 30.28533,-0.292 0.74,-0.0307 1.364,0.32267 1.41733,0.764 0.008,0.44 -0.54133,0.812 -1.284,0.84267 -10.18533,0.648 -20.40666,0.724 -30.57333,0.64667 -14.07867,-0.108 -27.81067,-0.20667 -42.03333,0.404 -1.61467,0.0853 -3.2,-0.244 -4.76267,-0.236 -11.052,0.10533 -21.912,0.52666 -32.98666,0.34533 -19.84534,-0.29467 -39.71867,0.26267 -59.504,-0.26533 -13.668,-0.35467 -27.63734,-0.17734 -40.87734,-2.668 l -0.0747,-0.132 0.17866,-0.0733" style="fill:#1a171b;fill-opacity:1;fill-rule:nonzero;stroke:none"/><path id="path2314" d="m 269.13064,533.21804 c 13.24534,2.388 27.24134,1.92534 40.86,2.35734 24.58934,0.79066 49.18667,-0.152 73.884,-0.18667 3.74134,0.001 7.47067,-0.43733 11.26534,-0.59067 10.16133,-0.388 19.77466,-0.43066 30.04399,-1.10133 8.172,-0.52133 16.056,0.39867 24.16134,0.184 10.152,-0.28533 20.18933,-0.75467 30.28533,-0.292 0.74,-0.0307 1.364,0.32267 1.41733,0.764 0.008,0.44133 -0.54133,0.81333 -1.284,0.844 -10.18533,0.64667 -20.40666,0.724 -30.57333,0.64667 -14.07867,-0.108 -27.81067,-0.208 -42.03333,0.40266 -1.61467,0.0853 -3.2,-0.244 -4.76267,-0.236 -11.052,0.10534 -21.912,0.52667 -32.98666,0.34667 -19.84534,-0.296 -39.71867,0.26133 -59.504,-0.26667 -13.668,-0.35466 -27.63734,-0.17733 -40.87734,-2.668 l -0.0747,-0.13066 0.17866,-0.0733" style="fill:#1a171b;fill-opacity:1;fill-rule:nonzero;stroke:none"/><path id="path2316" d="m 269.13064,535.66471 c 13.24534,2.388 27.24134,1.92533 40.86,2.35733 24.58934,0.792 49.18667,-0.15066 73.884,-0.18533 3.74134,10e-4 7.47067,-0.43867 11.26534,-0.59067 10.16133,-0.38933 19.77466,-0.432 30.04399,-1.10133 8.172,-0.52267 16.056,0.39733 24.16134,0.18267 10.152,-0.28534 20.18933,-0.75467 30.28533,-0.29067 0.74,-0.032 1.364,0.32133 1.41733,0.76267 0.008,0.44 -0.54133,0.81333 -1.284,0.84533 -10.18533,0.64667 -20.40666,0.72267 -30.57333,0.64667 -14.07867,-0.10934 -27.81067,-0.20934 -42.03333,0.40266 -1.61467,0.084 -3.2,-0.244 -4.76267,-0.236 -11.052,0.10534 -21.912,0.52534 -32.98666,0.34534 -19.84534,-0.29467 -39.71867,0.26133 -59.504,-0.26534 -13.668,-0.356 -27.63734,-0.17733 -40.87734,-2.66933 l -0.0747,-0.13067 0.17866,-0.0733" style="fill:#1a171b;fill-opacity:1;fill-rule:nonzero;stroke:none"/></g></svg>