<svg xmlns="http://www.w3.org/2000/svg" xmlns:svg="http://www.w3.org/2000/svg" id="svg36388" width="744.094" height="1052.362" version="1.1"><metadata id="metadata36393"/><g id="layer1"><path id="path2946" d="m 268.95201,525.18498 c 5.25866,0.21334 212.09599,-0.212 212.09599,-0.212 l -17.52933,-4.26666 -194.56666,4.47866" style="fill:#1a171b;fill-opacity:1;fill-rule:nonzero;stroke:none"/><path id="path2948" d="m 268.95201,529.87832 c 5.25866,0.21466 212.09599,-0.21334 212.09599,-0.21334 l -17.52933,-4.26666 -194.56666,4.48" style="fill:#1a171b;fill-opacity:1;fill-rule:nonzero;stroke:none"/><path id="path2950" d="m 268.95201,534.57165 c 5.25866,0.21333 212.09599,-0.21333 212.09599,-0.21333 l -17.52933,-4.26534 -194.56666,4.47867" style="fill:#1a171b;fill-opacity:1;fill-rule:nonzero;stroke:none"/><path id="path2952" d="m 268.95201,539.26365 c 5.25866,0.21467 212.09599,-0.212 212.09599,-0.212 l -17.52933,-4.26667 -194.56666,4.47867" style="fill:#1a171b;fill-opacity:1;fill-rule:nonzero;stroke:none"/><path id="path2954" d="m 268.95201,543.95832 c 5.25866,0.21333 212.09599,-0.21334 212.09599,-0.21334 l -17.52933,-4.26666 -194.56666,4.48" style="fill:#1a171b;fill-opacity:1;fill-rule:nonzero;stroke:none"/></g></svg>