<svg xmlns="http://www.w3.org/2000/svg" xmlns:svg="http://www.w3.org/2000/svg" id="svg36461" width="744.094" height="1052.362" version="1.1"><metadata id="metadata36466"/><g id="layer1"><path id="path3880" d="M 273.24401,521.86834 C 278.33334,522.06434 478.4,521.67367 478.4,521.67367 L 461.44267,517.767 273.24401,521.86834" style="fill:#1a171b;fill-opacity:1;fill-rule:nonzero;stroke:none"/><path id="path3882" d="m 345.00267,526.703 c 3.256,0.12667 131.30133,-0.12533 131.30133,-0.12533 l -10.852,-2.50133 -120.44933,2.62666" style="fill:#1a171b;fill-opacity:1;fill-rule:nonzero;stroke:none"/><path id="path3884" d="m 268.95201,533.759 c 5.084,0.196 205.15199,-0.19466 205.15199,-0.19466 l -16.952,-3.908 -188.19999,4.10266" style="fill:#1a171b;fill-opacity:1;fill-rule:nonzero;stroke:none"/><path id="path3886" d="m 344.33467,539.275 c 3.24934,0.12667 131.29467,-0.12533 131.29467,-0.12533 l -10.848,-2.5 -120.44667,2.62533" style="fill:#1a171b;fill-opacity:1;fill-rule:nonzero;stroke:none"/><path id="path3888" d="m 275.89601,546.903 c 5.084,0.19467 205.15199,-0.196 205.15199,-0.196 l -16.95333,-3.908 -188.19866,4.104" style="fill:#1a171b;fill-opacity:1;fill-rule:nonzero;stroke:none"/></g></svg>