<svg xmlns="http://www.w3.org/2000/svg" xmlns:svg="http://www.w3.org/2000/svg" id="svg35997" width="744.094" height="1052.362" version="1.1"><metadata id="metadata36002"/><g id="layer1"><path id="path2268" d="m 481.048,544.03964 c -5.25733,0.21333 -212.09599,-0.21334 -212.09599,-0.21334 l 17.52933,-4.26666 194.56666,4.48" style="fill:#1a171b;fill-opacity:1;fill-rule:nonzero;stroke:none"/><path id="path2270" d="m 456.99067,538.6303 c -4.208,0.172 -169.67866,-0.16933 -169.67866,-0.16933 l 14.02666,-3.41466 155.652,3.58399" style="fill:#1a171b;fill-opacity:1;fill-rule:nonzero;stroke:none"/><path id="path2272" d="m 437.08,533.51964 c -3.36533,0.136 -135.74133,-0.136 -135.74133,-0.136 l 11.21467,-2.73067 124.52666,2.86667" style="fill:#1a171b;fill-opacity:1;fill-rule:nonzero;stroke:none"/><path id="path2274" d="m 424.44533,529.10764 c -2.69199,0.108 -108.59732,-0.11067 -108.59732,-0.11067 l 8.97866,-2.184 99.61866,2.29467" style="fill:#1a171b;fill-opacity:1;fill-rule:nonzero;stroke:none"/><path id="path2276" d="m 414.24666,525.17031 c -2.15467,0.088 -86.87732,-0.0867 -86.87732,-0.0867 l 7.17467,-1.748 79.70265,1.83467" style="fill:#1a171b;fill-opacity:1;fill-rule:nonzero;stroke:none"/><path id="path2278" d="m 407.864,522.09297 c -1.72,0.0707 -69.50133,-0.0693 -69.50133,-0.0693 l 5.74,-1.39867 63.76133,1.468" style="fill:#1a171b;fill-opacity:1;fill-rule:nonzero;stroke:none"/></g></svg>