<svg xmlns="http://www.w3.org/2000/svg" xmlns:svg="http://www.w3.org/2000/svg" id="svg28949" width="744.094" height="1052.362" version="1.1"><metadata id="metadata28954"/><g id="layer1"><path id="path2266" d="m 295.50801,528.61822 c 2.90666,-0.36533 6.328,-1.47467 10.09733,-1.32133 39.94533,-0.3 74.43866,0.94133 113.36533,2.928 21.66133,0.79466 40.76533,1.25866 62.07733,1.51066 -5.89733,0.003 -11.82266,-0.37066 -17.74533,0.0387 -11.86933,0.83733 -22.58133,1.536 -34.51733,2.41867 -10.772,0.74133 -23.92667,2.20133 -36.14,1.71066 -30.70667,-1.14133 -44.18,-0.16933 -36.82,-0.16 -4.94667,0.004 -8.512,1.27467 -13.42,1.64533 -9.89733,0.40667 -18.80533,-0.78666 -27.62933,-1.25066 -1.23067,0.19467 -4.97334,0.41733 -6.25334,0.25067 -11.46,-1.128 -21.71733,-2.828 -35.696,-3.14 1.264,-0.21334 2.52,-0.42534 2.52,-0.42534 -2.55866,-0.33066 -3.83733,-0.496 -6.39466,-0.82533 7.59333,-1.30533 17.71733,-2.26267 26.556,-3.38" style="fill:#b0b2b3;fill-opacity:1;fill-rule:nonzero;stroke:none"/></g></svg>