<svg xmlns="http://www.w3.org/2000/svg" xmlns:svg="http://www.w3.org/2000/svg" id="svg36425" width="744.094" height="1052.362" version="1.1"><metadata id="metadata36430"/><g id="layer1"><path id="path3228" d="m 284.79893,524.66197 7.80933,0.268 -5.50666,0.20533 c 4.816,0.136 9.56533,0.29734 14.652,0.26134 23.876,-0.172 45.15066,-0.904 68.64665,-1.12267 35.568,-0.32933 70.45467,0.284 105.292,-0.28933 3.39467,-0.0267 5.96133,-0.25467 5.66533,-0.53067 -0.18,-0.26267 -2.98,-0.47333 -6.34266,-0.46 -52.40534,-0.0507 -105.512,-0.28667 -154.62932,-2.18667 -4.39867,-0.168 -8.17867,-0.516 -14.21334,-0.63066 -16.91066,-0.28534 -33.44933,0.60933 -36.91066,1.99333 -3.46667,1.384 7.444,2.73733 24.356,3.02133 l -8.81867,-0.52933" style="fill:#1a171b;fill-opacity:1;fill-rule:nonzero;stroke:none"/><path id="path3230" d="m 284.79893,531.0633 7.80933,0.26667 -5.50666,0.20666 c 4.816,0.136 9.56533,0.296 14.652,0.25867 23.876,-0.17067 45.15066,-0.90267 68.64665,-1.12133 35.568,-0.32934 70.45467,0.284 105.292,-0.28934 3.39467,-0.0253 5.96133,-0.25466 5.66533,-0.532 -0.18,-0.26133 -2.98,-0.472 -6.34266,-0.45866 -52.40534,-0.0493 -105.512,-0.28667 -154.62932,-2.18533 -4.39867,-0.16934 -8.17867,-0.51867 -14.21334,-0.63334 -16.91066,-0.284 -33.44933,0.60934 -36.91066,1.99333 -3.46667,1.38534 7.444,2.73867 24.356,3.02267 l -8.81867,-0.528" style="fill:#1a171b;fill-opacity:1;fill-rule:nonzero;stroke:none"/><path id="path3232" d="m 284.79893,537.46197 7.80933,0.268 -5.50666,0.20666 c 4.816,0.13467 9.56533,0.29734 14.652,0.25867 23.876,-0.172 45.15066,-0.904 68.64665,-1.12267 35.568,-0.328 70.45467,0.284 105.292,-0.288 3.39467,-0.0253 5.96133,-0.25466 5.66533,-0.532 -0.18,-0.26133 -2.98,-0.47066 -6.34266,-0.46 -52.40534,-0.048 -105.512,-0.28533 -154.62932,-2.184 -4.39867,-0.16933 -8.17867,-0.51866 -14.21334,-0.63333 -16.91066,-0.284 -33.44933,0.60933 -36.91066,1.99333 -3.46667,1.38534 7.444,2.73867 24.356,3.02267 l -8.81867,-0.52933" style="fill:#1a171b;fill-opacity:1;fill-rule:nonzero;stroke:none"/><path id="path3234" d="m 284.79893,543.86197 7.80933,0.268 -5.50666,0.20666 c 4.816,0.13467 9.56533,0.296 14.652,0.25867 23.876,-0.172 45.15066,-0.90267 68.64665,-1.12133 35.568,-0.32934 70.45467,0.28266 105.292,-0.28934 3.39467,-0.0253 5.96133,-0.25466 5.66533,-0.532 -0.18,-0.26133 -2.98,-0.472 -6.34266,-0.46 -52.40534,-0.048 -105.512,-0.28666 -154.62932,-2.184 -4.39867,-0.16933 -8.17867,-0.51866 -14.21334,-0.63333 -16.91066,-0.284 -33.44933,0.60933 -36.91066,1.99467 -3.46667,1.384 7.444,2.73733 24.356,3.02133 l -8.81867,-0.52933" style="fill:#1a171b;fill-opacity:1;fill-rule:nonzero;stroke:none"/></g></svg>