<svg xmlns="http://www.w3.org/2000/svg" xmlns:svg="http://www.w3.org/2000/svg" id="svg3149" width="744.094" height="1052.362" version="1.1"><metadata id="metadata3154"/><g id="layer1"><g id="g50" transform="matrix(1.3330317,0.02835969,0.02835969,-1.3330317,519.57671,470.83297)"><path style="fill:#1e1e1e;fill-opacity:1;fill-rule:nonzero;stroke:none" id="path52" d="m 0,0 c -12.291,1.402 -26.232,0.088 -38.635,-0.367 -18.388,-0.68 -36.933,-1.186 -55.207,-2.41 -15.189,-1.018 -32.766,-0.321 -47.137,-3.063 -15.788,-3.012 -25.872,-7.127 -37.611,1.19 -9,6.379 -23.651,6.666 -35.361,1.851 -2.613,-1.074 -5.159,-3.142 -7.067,-4.472 -7.693,-5.368 -16.238,-6.497 -30.294,-5.567 -12.804,0.846 -23.815,1.813 -36.541,0.201 -8.014,-1.008 -6.321,-6.74 1.943,-6.74 22.428,0.006 49.866,-6.086 70.327,0.752 2.9,0.967 17.795,10.652 19.951,9.299 6.062,-3.805 8.071,-7.231 16.559,-10.184 7.966,-2.771 19.64,-0.881 27.553,0.633 4.588,0.879 8.965,1.973 13.374,3.029 10.272,2.455 21.804,2.227 33.078,2.629 19.265,0.686 38.382,1.887 57.697,2.397 15.842,0.418 31.869,0.295 47.371,2.064 9.254,1.053 9.254,7.703 0,8.758"/></g></g></svg>