<svg xmlns="http://www.w3.org/2000/svg" xmlns:svg="http://www.w3.org/2000/svg" id="svg3051" width="744.094" height="1052.362" version="1.1"><metadata id="metadata3056"/><g id="layer1"><g id="g26" transform="matrix(1.3329943,0.03006509,0.03006509,-1.3329943,1013.0058,513.4853)"><path style="fill:#1e1e1e;fill-opacity:1;fill-rule:nonzero;stroke:none" id="path28" d="m 0,0 c -5.314,-0.016 -9.912,1.27 -14.801,2.148 0.104,0.452 -0.26,0.916 -1.247,1.043 -19.072,2.479 -38.543,-0.369 -57.837,0.327 -0.276,0.627 -1.164,1.138 -2.763,1.171 -18.853,0.407 -37.571,-1.134 -55.517,-4.267 -2.132,-0.371 -2.928,-1.611 -2.282,-2.533 -8.563,-0.44 -17.809,0.474 -25.818,0.884 -7.625,0.387 -15.308,0.184 -22.956,0.323 -4.823,0.086 -9.585,0.187 -14.318,0.076 0.517,0.846 -0.523,1.928 -2.353,1.935 -18.593,0.082 -36.962,0.645 -55.253,-1.716 -13.532,-1.745 -29.976,-3.828 -40.635,-8.959 -2.39,-1.147 -0.152,-2.911 2.585,-2.752 13.838,0.799 27.205,2.941 41.138,3.129 0.287,-0.141 0.664,-0.233 1.135,-0.225 2.592,0.016 5.181,0.131 7.768,0.213 2.561,0.078 5.305,0.043 7.808,0.379 5.271,-0.201 10.558,-0.086 15.855,-0.01 -0.819,-0.363 -1.605,-0.756 -2.346,-1.187 -1.901,-1.09 -0.858,-2.739 1.895,-2.93 27.701,-1.947 57.038,0.275 84.304,3.855 0.532,-0.496 1.492,-0.879 2.724,-0.974 9.376,-0.715 18.822,0.017 28.12,0.718 10.828,0.831 21.638,1.706 32.479,2.448 12.518,0.853 25.034,1.685 37.653,1.974 11.736,0.276 23.576,0.227 35.223,1.19 C 4.425,-3.418 3.906,0.018 0,0"/></g></g></svg>