<svg xmlns="http://www.w3.org/2000/svg" xmlns:svg="http://www.w3.org/2000/svg" id="svg3265" width="744.094" height="1052.362" version="1.1"><metadata id="metadata3270"/><g id="layer1"><g id="g66" transform="matrix(1.3333333,0,0,-1.3333333,577.23803,530.79325)"><path style="fill:#1e1e1e;fill-opacity:1;fill-rule:nonzero;stroke:none" id="path68" d="m 0,0 c 0.035,0.215 0.072,0.432 0.077,0.654 0.021,1.213 -0.477,2.444 -1.33,3.305 -2.038,2.061 -2.309,2.328 -54.844,2.02 -2.01,-0.012 -4.081,-0.026 -6.19,-0.038 -60.793,2.305 -63.69,1.838 -66.15,-0.492 -0.456,-0.429 -0.809,-0.933 -1.059,-1.48 -5.729,-0.049 -11.578,-0.098 -17.496,-0.143 -90.522,3.623 -109.805,3.643 -115.309,1.279 -18.253,0.079 -20.393,-0.726 -21.941,-2.199 -0.385,-0.365 -0.699,-0.785 -0.939,-1.238 -13.241,-0.211 -16.149,-1.01 -17.593,-2.397 -0.921,-0.884 -1.441,-2.066 -1.462,-3.324 -0.022,-1.211 0.47,-2.431 1.322,-3.295 1.844,-1.865 2.036,-2.062 34.581,-1.882 10.082,0.056 22.516,0.123 25.417,-0.157 0.453,-0.162 0.939,-0.254 1.446,-0.265 1.505,0.025 2.9,0.714 3.733,1.871 11.166,-0.221 22.71,-0.485 33.528,-0.733 37.877,-0.865 62.185,-1.291 77.91,-1.291 19.336,0 25.695,0.645 28.34,1.912 4.315,0.057 7.242,0.2 9.279,0.424 68.989,-2.529 84.575,-2.072 88,1.162 0.981,0.926 1.535,2.162 1.559,3.481 C 0.896,-1.807 0.582,-0.832 0,0"/></g></g></svg>