<svg xmlns="http://www.w3.org/2000/svg" xmlns:svg="http://www.w3.org/2000/svg" id="svg3207" width="744.094" height="1052.362" version="1.1"><metadata id="metadata3212"/><g id="layer1"><g id="g58" transform="matrix(1.3333333,0,0,-1.3333333,747.91399,869.79687)"><path style="fill:#1e1e1e;fill-opacity:1;fill-rule:nonzero;stroke:none" id="path60" d="m 0,0 c 0.022,1.27 -0.464,2.473 -1.369,3.387 -2.475,2.5 -5.988,3.136 -75.449,2.636 -2.815,-0.019 -5.671,-0.039 -8.53,-0.058 -57.592,2.404 -60.533,1.889 -62.943,-0.383 -0.937,-0.883 -1.465,-2.068 -1.486,-3.338 -0.007,-0.387 0.058,-0.773 0.153,-1.156 -11.405,-0.063 -22.931,-0.111 -33.846,-0.115 -26.176,0.777 -45.944,1.297 -60.914,1.584 -0.722,0.529 -1.61,0.845 -2.573,0.863 -0.99,0.004 -1.86,-0.27 -2.601,-0.772 -28.272,0.473 -37.326,-0.031 -40.827,-1.328 -16.748,0.084 -18.551,-0.631 -20.031,-2.041 -0.917,-0.873 -1.434,-2.045 -1.455,-3.295 -0.022,-1.213 0.473,-2.435 1.324,-3.296 1.889,-1.913 2.079,-2.118 38.418,-1.911 12.895,0.073 28.807,0.16 32.325,-0.24 0.507,-0.211 1.062,-0.33 1.644,-0.342 0.993,0.01 1.89,0.282 2.639,0.799 1.578,-0.049 3.144,-0.096 4.69,-0.142 68.314,-2.108 70.236,-1.665 72.392,0.359 57.939,-1.772 92.127,-2.604 112.451,-2.602 22.227,0 27.864,0.995 29.801,2.84 0.886,0.844 1.392,1.951 1.484,3.135 10.272,0.051 11.873,0.803 13.207,2.057 C -0.555,-2.471 -0.023,-1.277 0,0"/></g></g></svg>