<svg xmlns="http://www.w3.org/2000/svg" xmlns:svg="http://www.w3.org/2000/svg" id="svg3096" width="744.094" height="1052.362" version="1.1"><metadata id="metadata3101"/><g id="layer1"><g id="g42" transform="matrix(1.3324883,0.04746199,0.04746199,-1.3324883,651.53153,257.03579)"><path style="fill:#1e1e1e;fill-opacity:1;fill-rule:nonzero;stroke:none" id="path44" d="m 0,0 c -38.769,3.338 -79.107,-0.838 -117.612,-4.197 -41.065,-3.584 -82.744,-2.5 -123.64,-6.188 -6.024,-0.539 -6.751,-7.111 -0.703,-8.027 37.364,-5.69 76.856,-1.299 114.747,-0.356 42.889,1.071 86.254,0.235 129.004,3.311 C 15.814,-14.445 12.419,-1.066 0,0 m -254.434,-11.855 c -1.476,0.216 -2.767,0.962 -4.355,1.201 -3.385,0.5 -6.882,-0.297 -8.08,-2.647 -0.018,-0.029 -0.018,-0.058 -0.035,-0.088 -0.965,0.696 -2.292,1.246 -4.135,1.428 -3.468,0.336 -6.905,0.506 -10.356,0.945 -3.909,0.498 -7.486,-2.17 -7.69,-4.531 -0.209,-2.359 2.88,-5.289 6.847,-5.086 3.509,0.17 6.957,0.078 10.459,0.153 3.52,0.072 5.574,1.476 6.258,3.123 1.107,-0.756 2.625,-1.293 4.323,-1.506 -2.669,0.342 1.176,-0.58 1.246,-0.598 1.005,-0.285 2.059,-0.375 3.135,-0.51 6.958,-0.888 9.29,7.096 2.383,8.116"/></g></g></svg>