<svg xmlns="http://www.w3.org/2000/svg" xmlns:svg="http://www.w3.org/2000/svg" id="svg2998" width="744.094" height="1052.362" version="1.1"><metadata id="metadata3003"/><g id="layer1"><g id="g70" transform="matrix(1.3333333,0,0,-1.3333333,581.99403,526.99515)"><path style="fill:#1e1e1e;fill-opacity:1;fill-rule:nonzero;stroke:none" id="path72" d="m 0,0 c -2.113,2.139 -2.619,2.648 -63.574,2.348 -21.963,-0.106 -49.115,-0.241 -54.127,0.47 -0.578,0.286 -1.225,0.45 -1.912,0.463 -1.078,0.004 -2.102,-0.353 -2.893,-0.988 -103.261,3.453 -124.595,3.359 -130.187,0.5 -0.774,-0.236 -1.32,-0.51 -1.744,-0.814 -33.372,0.486 -44.357,-0.434 -47.666,-2.795 -5.459,-0.323 -7.157,-1.008 -8.235,-2.032 -0.941,-0.892 -1.473,-2.088 -1.495,-3.365 -0.021,-1.215 0.489,-2.473 1.345,-3.334 1.993,-2.008 2.353,-2.371 43.761,-1.992 14.286,0.135 31.913,0.293 35.805,-0.193 0.558,-0.264 1.178,-0.416 1.834,-0.428 0.94,0.008 1.8,0.252 2.526,0.724 29.15,-1.031 46.666,-1.527 57.38,-1.527 13.31,0 16.116,0.766 17.648,2.219 0.255,0.242 0.481,0.508 0.675,0.791 32.318,-1.086 65.314,-2.176 90.288,-2.567 40.29,-0.63 46.119,0.723 48.319,2.364 0.764,0.297 1.291,0.629 1.684,1 0.054,0.051 0.107,0.103 0.16,0.158 6.881,0.383 9.064,1.156 10.242,2.275 0.949,0.903 1.484,2.106 1.508,3.393 C 1.362,-2.119 0.852,-0.861 0,0"/></g></g></svg>