<svg xmlns="http://www.w3.org/2000/svg" xmlns:xlink="http://www.w3.org/1999/xlink" id="Layer_1" width="612" height="792" x="0" y="0" enable-background="new 0 0 612 792" version="1.1" viewBox="0 0 612 792" xml:space="preserve"><path d="M0.903,1C0.905,0.733,0.909,0.423,0.92,0.179H0.87H0.142c-0.002,0.018-0.028,0.447-0.03,0.659H0	C0.004,0.46,0.02,0.137,0.048-0.003C0.02-0.132,0.002-0.48,0-0.845h0.111c0.001,0.11,0.008,0.273,0.016,0.411	c0.007,0.137,0.015,0.248,0.015,0.251H0.87h0.05C0.909-0.425,0.903-0.754,0.903-1C0.928-0.577,0.96-0.208,1,0	C0.96,0.198,0.929,0.59,0.903,1z"/></svg>