<svg xmlns="http://www.w3.org/2000/svg" xmlns:xlink="http://www.w3.org/1999/xlink" id="Layer_1" width="612" height="792" x="0" y="0" enable-background="new 0 0 612 792" version="1.1" viewBox="0 0 612 792" xml:space="preserve"><polygon points=".027 .105 .053 .105 0 1 .025 1 .078 .105 .103 .105 .05 1 .075 1 .127 .105 .152 .105 .099 1 .124 1 .177 .105 .822 .105 .822 1 1 0 .822 -1 .822 -.105 .177 -.105 .124 -1 .099 -1 .152 -.105 .127 -.105 .075 -1 .05 -1 .103 -.105 .078 -.105 .025 -1 0 -1 .053 -.105 .027 -.105"/></svg>