<svg xmlns="http://www.w3.org/2000/svg" xmlns:xlink="http://www.w3.org/1999/xlink" id="Layer_1" width="612" height="792" x="0" y="0" enable-background="new 0 0 612 792" version="1.1" viewBox="0 0 612 792" xml:space="preserve"><path fill="none" fill-rule="evenodd" stroke="#000" stroke-miterlimit="10" d="M353.494,336.513	l7.104,21.186l18.229-12.975l-6.737,21.304l22.394,0.192l-18.003,13.286l18.003,13.285l-22.394,0.192l6.737,21.306l-18.229-12.975	l-7.104,21.186l-7.104-21.186l-18.229,12.975l6.736-21.306l-22.395-0.192l18.004-13.285l-18.004-13.286l22.395-0.192l-6.736-21.304	l18.229,12.975L353.494,336.513 M349.238,366.484l-10.92-7.772l4.035,12.763l-13.414,0.114l10.785,7.96l-10.785,7.959l13.414,0.113	l-4.035,12.763l10.92-7.772l4.256,12.691l4.255-12.691l10.92,7.772l-4.036-12.763l13.415-0.113l-10.784-7.959l10.784-7.96	l-13.415-0.114l4.036-12.763l-10.92,7.772l-4.255-12.691L349.238,366.484" clip-rule="evenodd"/></svg>