<svg xmlns="http://www.w3.org/2000/svg" xmlns:xlink="http://www.w3.org/1999/xlink" id="Layer_1" width="612" height="792" x="0" y="0" enable-background="new 0 0 612 792" version="1.1" viewBox="0 0 612 792" xml:space="preserve"><path fill="none" fill-rule="evenodd" stroke="#000" stroke-miterlimit="10" d="M314.261,421.511	c7.518,0,13.611-6.08,13.611-13.581v-42.876c10.043,6.847,16.641,18.357,16.641,31.41c0,21-17.062,38.024-38.108,38.024	c-11.419,0-21.638-5.037-28.623-12.977H314.261z M297.93,382.798c0,5.398-4.386,9.774-9.796,9.774h-19.64	c1.664-16.338,13.706-29.587,29.437-33.157V382.798z M307.455,388.687v-30.195c3.796,0.104,7.45,0.747,10.89,1.879v41.67	c0,5.398-4.385,9.774-9.796,9.774h-36.992c-1.329-2.998-2.256-6.202-2.771-9.548h25.059	C301.362,402.268,307.455,396.188,307.455,388.687z" clip-rule="evenodd"/></svg>