<svg xmlns="http://www.w3.org/2000/svg" xmlns:xlink="http://www.w3.org/1999/xlink" id="Layer_1" width="612" height="792" x="0" y="0" enable-background="new 0 0 612 792" version="1.1" viewBox="0 0 612 792" xml:space="preserve"><path fill="none" fill-rule="evenodd" stroke="#000" stroke-miterlimit="10" d="M306,437.5	c-22.92,0-41.5-18.58-41.5-41.5s18.58-41.5,41.5-41.5s41.5,18.58,41.5,41.5S328.92,437.5,306,437.5z M306,355.883	c-22.156,0-40.117,17.961-40.117,40.117c0,22.156,17.961,40.117,40.117,40.117c22.156,0,40.117-17.961,40.117-40.117	C346.117,373.844,328.156,355.883,306,355.883z M306,423.667c-15.28,0-27.667-12.387-27.667-27.667	c0-15.28,12.387-27.667,27.667-27.667c15.28,0,27.667,12.387,27.667,27.667C333.667,411.28,321.28,423.667,306,423.667z M306,369.717c-14.516,0-26.283,11.767-26.283,26.283c0,14.516,11.767,26.283,26.283,26.283c14.516,0,26.283-11.768,26.283-26.283	C332.283,381.484,320.516,369.717,306,369.717z M306,409.833c-7.64,0-13.833-6.193-13.833-13.833c0-7.64,6.193-13.833,13.833-13.833	c7.64,0,13.833,6.193,13.833,13.833C319.833,403.64,313.64,409.833,306,409.833z M306,383.55c-6.876,0-12.45,5.574-12.45,12.45	s5.574,12.45,12.45,12.45s12.45-5.574,12.45-12.45S312.876,383.55,306,383.55z" clip-rule="evenodd"/></svg>