<svg xmlns="http://www.w3.org/2000/svg" xmlns:xlink="http://www.w3.org/1999/xlink" id="Layer_1" width="612" height="792" x="0" y="0" enable-background="new 0 0 612 792" version="1.1" viewBox="0 0 612 792" xml:space="preserve"><path fill="none" fill-rule="evenodd" stroke="#000" stroke-miterlimit="10" d="M387.036,387.444	c-12.658-5.38-33.859-6.962-42.085-6.487v0.316c17.404,3.323,30.376,8.07,33.859,12.5c-3.167,1.899-6.331,4.431-8.546,6.018	c-12.338-12.347-27.211-15.511-32.272-15.511v0.316c9.174,4.431,20.567,13.607,25.313,20.258c-3.479,1.898-6.963,5.063-8.861,6.646	c-10.124-19.625-21.517-25.321-28.794-28.486c-0.948,2.848-3.796,5.381-7.593,5.381c-4.748,0-8.545-3.798-8.545-8.229	c0-4.751,3.797-8.549,8.545-8.549c3.797,0,6.645,2.532,7.593,5.38c7.277-3.166,18.67-8.861,28.794-28.486	c1.898,1.582,5.382,4.747,8.861,6.646c-4.745,6.966-16.139,15.828-25.313,20.258v0.316c5.062,0,19.935-3.165,32.272-15.507	c2.215,1.582,5.379,4.114,8.546,6.012c-3.483,4.431-16.455,9.178-33.859,12.501v0.32c8.226,0.475,29.427-1.112,42.085-6.491	c2.215,1.898,6.644,5.379,10.44,7.599C393.68,382.381,389.251,385.545,387.036,387.444z" clip-rule="evenodd"/></svg>