<svg xmlns="http://www.w3.org/2000/svg" xmlns:xlink="http://www.w3.org/1999/xlink" id="Layer_1" width="612" height="792" x="0" y="0" enable-background="new 0 0 612 792" version="1.1" viewBox="0 0 612 792" xml:space="preserve"><path fill="none" fill-rule="evenodd" stroke="#000" stroke-miterlimit="10" d="M385.195,391.3	c-6.237,0-25.099-11.294-25.099-11.294s18.861-11.294,25.099-11.294c6.238,0,11.294,5.057,11.294,11.294	S391.434,391.3,385.195,391.3z M358.309,375.69c0,0,5.351-21.322,9.761-25.732c4.412-4.411,11.563-4.41,15.973,0	c4.411,4.411,4.411,11.561,0,15.972C379.632,370.34,358.309,375.69,358.309,375.69z M342.699,348.807	c0-6.238,5.057-11.294,11.294-11.294s11.294,5.056,11.294,11.294c0,6.236-11.294,25.097-11.294,25.097	S342.699,355.043,342.699,348.807z M323.944,365.931c-4.411-4.411-4.411-11.562,0-15.972c4.411-4.411,11.562-4.411,15.973,0	c4.41,4.41,9.761,25.732,9.761,25.732S328.354,370.341,323.944,365.931z M347.891,380.007c0,0-18.861,11.294-25.098,11.294	c-6.238,0-11.295-5.057-11.295-11.294s5.057-11.293,11.295-11.293C329.029,368.713,347.891,380.007,347.891,380.007z M349.679,384.322c0,0-5.351,21.322-9.761,25.731c-4.411,4.411-11.563,4.411-15.973,0c-4.41-4.41-4.411-11.561,0-15.972	C328.355,389.673,349.679,384.322,349.679,384.322z M365.289,411.206c0,6.238-5.057,11.294-11.295,11.294	c-6.237,0-11.294-5.056-11.294-11.294c0-6.236,11.294-25.097,11.294-25.097S365.289,404.97,365.289,411.206z M384.043,394.081	c4.411,4.411,4.411,11.562,0,15.973c-4.41,4.41-11.562,4.41-15.973,0c-4.41-4.41-9.761-25.732-9.761-25.732	S379.633,389.672,384.043,394.081z" clip-rule="evenodd"/></svg>