<svg xmlns="http://www.w3.org/2000/svg" xmlns:xlink="http://www.w3.org/1999/xlink" id="Layer_1" width="612" height="792" x="0" y="0" enable-background="new 0 0 612 792" version="1.1" viewBox="0 0 612 792" xml:space="preserve"><path fill="none" fill-rule="evenodd" stroke="#000" stroke-miterlimit="10" d="M337.248,407.375h29.273	l-23.777,18.122l9.588,28.974L326,437.367l-26.333,17.104l8.308-28.974l-22.497-18.122h29.397L326,378.529L337.248,407.375z M326,419.627l-34.388-10.083l-0.257,0.256l19.047,14.933L326,419.627z M326,419.756l-23.267,29.864l0.256,0.639L326,434.942	V419.756z M326,419.627v-35.354h-0.257l-9.202,24.249L326,419.627z M326,419.627l34.512-10.21v-0.256h-25.565L326,419.627z M326,419.627l22.626,29.865l0.253-0.127l-8.693-25.526L326,419.627z" clip-rule="evenodd"/></svg>