<svg xmlns="http://www.w3.org/2000/svg" xmlns:xlink="http://www.w3.org/1999/xlink" id="Layer_1" width="612" height="792" x="0" y="0" enable-background="new 0 0 612 792" version="1.1" viewBox="0 0 612 792" xml:space="preserve"><path fill="none" fill-rule="evenodd" stroke="#000" stroke-miterlimit="10" d="M336.539,390.25l1.197,6.871	l-6.046-3.167l-6.144,3.262l1.197-6.872l-5.039-4.813l6.835-1.014l2.96-6.27l3.182,6.175l6.837,0.95L336.539,390.25z M321.298,382.445l-7.675-4.02l-7.796,4.141l1.519-8.721l-6.396-6.11l8.675-1.286l3.758-7.958l4.038,7.837l8.676,1.205l-6.318,6.191	L321.298,382.445z M305.888,386.017l3.182,6.175l6.836,0.95l-4.979,4.877l1.197,6.872l-6.046-3.168l-6.144,3.263l1.197-6.872	l-5.039-4.813l6.835-1.014L305.888,386.017z M290.83,415.521l-7.675-4.02l-7.796,4.141l1.519-8.722l-6.396-6.109l8.674-1.287	l3.758-7.958l4.038,7.837l8.676,1.205l-6.318,6.19L290.83,415.521z M291.15,386.022l-6.046-3.167l-6.144,3.263l1.197-6.872	l-5.039-4.813l6.835-1.014l2.961-6.27l3.182,6.175l6.836,0.95l-4.979,4.877L291.15,386.022z M299.911,418.393l3.758-7.958	l4.038,7.837l8.676,1.205l-6.317,6.19l1.519,8.722l-7.675-4.02l-7.796,4.141l1.519-8.722l-6.396-6.109L299.911,418.393z M323.682,409.158l2.961-6.271l3.182,6.175l6.837,0.95l-4.979,4.877l1.197,6.872l-6.046-3.167l-6.144,3.262l1.196-6.871	l-5.038-4.813L323.682,409.158z" clip-rule="evenodd"/></svg>