<svg xmlns="http://www.w3.org/2000/svg" xmlns:xlink="http://www.w3.org/1999/xlink" id="Layer_1" width="612" height="792" x="0" y="0" enable-background="new 0 0 612 792" version="1.1" viewBox="0 0 612 792" xml:space="preserve"><path fill="none" fill-rule="evenodd" stroke="#000" stroke-miterlimit="10" d="M343.489,387.804	l-25.918-3.767l-11.294-22.558l-11.306,23.042l-25.46,3.761l18.383,17.862l-3.782,25.377l22.633-11.741l22.611,11.741l-4.233-25.858	L343.489,387.804z M316.487,413.771c-1.84-0.954-9.736-5.054-9.736-5.054s-8.038,4.165-10.075,5.223	c0.355-2.387,1.682-11.323,1.682-11.323s-6.304-6.119-7.744-7.532c2.038-0.298,10.916-1.61,10.916-1.61l2.28-4.634	c0,0,1.66-3.396,2.557-5.226c0.808,1.616,4.707,9.398,4.707,9.398s9.025,1.306,11.289,1.635c-1.429,1.383-7.778,7.561-7.778,7.561	S316.081,411.309,316.487,413.771z" clip-rule="evenodd"/></svg>