<svg xmlns="http://www.w3.org/2000/svg" xmlns:xlink="http://www.w3.org/1999/xlink" id="Layer_1" width="612" height="792" x="0" y="0" enable-background="new 0 0 612 792" version="1.1" viewBox="0 0 612 792" xml:space="preserve"><path fill="none" fill-rule="evenodd" stroke="#000" stroke-miterlimit="10" d="M385.129,395.567	l15.353,15.426l-15.488,15.559l-15.491-15.559l15.279-15.35l-15.288-15.354l-15.284,15.354l15.276,15.349l-15.488,15.559	l-15.491-15.559l15.277-15.348l-15.287-15.354l-15.284,15.354l15.274,15.348l-15.488,15.559l-15.492-15.559l15.355-15.426	l-15.355-15.56l15.355-15.563l-15.355-15.422l15.492-15.563l15.488,15.563l-15.353,15.422l13.071,13.251l2.291,2.302l2.29-2.301	l13.075-13.251l-15.355-15.422l15.491-15.563l15.488,15.563l-15.353,15.422l13.442,13.626l1.918,1.928l1.909-1.917l13.455-13.637	l-15.355-15.422l15.491-15.563l15.488,15.563l-15.353,15.422l15.353,15.563L385.129,395.567z" clip-rule="evenodd"/></svg>