<svg xmlns="http://www.w3.org/2000/svg" xmlns:xlink="http://www.w3.org/1999/xlink" id="Layer_1" width="612" height="792" x="0" y="0" enable-background="new 0 0 612 792" version="1.1" viewBox="0 0 612 792" xml:space="preserve"><path fill="none" fill-rule="evenodd" stroke="#000" stroke-miterlimit="10" d="M397.451,400.493	l-4.836-5.272v-23.122h-19.1v1.258h13.357l4.232,4.792v22.344h-37.111h-3.023l-4.834-5.272v-23.122h-19.1v1.258h13.356l4.232,4.792	v22.344h-37.112v-5.691h31.793v-20.726h-18.012v-7.368h25.566v28.094h7.133h31.792v-20.726h-18.013v-7.368h25.567v28.094h7.133	v5.691H397.451z M361.549,380.665h17.89v7.668h-25.444v-28.036h-38.925v20.368h17.892v7.668h-25.447V359.52h1.088l3.93,4.492v23.603	h15.11v-1.378h-8.462l-4.836-5.272V359.52h39.65h1.087l3.93,4.492v23.603h15.11v-1.378h-8.462l-4.836-5.272V359.52h39.65v0.778	h-38.925V380.665z" clip-rule="evenodd"/></svg>